# xmcd
#
# Track frame offsets:
#	225
#	15800
#	28599
#	42797
#	57573
#	71848
#	86870
#	101876
#	115122
#	129762
#	141074
#	155746
#	171111
#	187773
#	201862
#	216574
#	233211
#	251425
#	263522
#	277162
#	293432
#	306539
#	321121
#	335521
#
# Disc length: 4700 seconds
#
# Revision: 0
# Processed by: cddbd v1.5.2PL0 Copyright (c) Steve Scherf et al.
# Submitted via: audiograbber 1.83.01
#
DISCID=62125918
DTITLE=Norrie Paramor and His Orchestra - The Zodiac Suite/Dreams And Desires
DYEAR=1900
DGENRE=
TTITLE0=An Aries Aria
TTITLE1=Taurus Tango
TTITLE2=The Gemini Waltz
TTITLE3=Cancerian Concerto
TTITLE4=Lonely Leo
TTITLE5=The Impatient Virgo
TTITLE6=A Libra Rhapsody
TTITLE7=Seductive Scorpio
TTITLE8=The Sagacious Sagittarius
TTITLE9=Capricious Capricorn
TTITLE10=Mood Aquarius
TTITLE11=Ode To Pisces
TTITLE12=That's My Desire
TTITLE13=You Stepped Out Of A Dream
TTITLE14=If I Had You
TTITLE15=I'd Love To Fall Asleep (And Wake Up In Your Arms)
TTITLE16=Once In A While
TTITLE17=You'd Be So Nice To Come Home To
TTITLE18=Dream Lover
TTITLE19=Please
TTITLE20=I'm A Dreamer, Aren't We All
TTITLE21=All Or Nothing At All
TTITLE22=Dream
TTITLE23=I'll See You In My Dreams
EXTD=
EXTT0=
EXTT1=
EXTT2=
EXTT3=
EXTT4=
EXTT5=
EXTT6=
EXTT7=
EXTT8=
EXTT9=
EXTT10=
EXTT11=
EXTT12=
EXTT13=
EXTT14=
EXTT15=
EXTT16=
EXTT17=
EXTT18=
EXTT19=
EXTT20=
EXTT21=
EXTT22=
EXTT23=
PLAYORDER=
